<?xml version="1.0" encoding="UTF-8" standalone="no"?>
<!-- Created with Inkscape (http://www.inkscape.org/) -->
<svg
   xmlns:svg="http://www.w3.org/2000/svg"
   xmlns="http://www.w3.org/2000/svg"
   version="1.0"
   x="0.0000000"
   y="0.0000000"
   width="375.00000"
   height="375.00000"
   id="svg2">
  <defs
     id="defs5" />
  <g
     transform="matrix(3.676899,0.000000,0.000000,3.676899,-1340.080,-976.5903)"
     id="g4251">
    <path
       d="M 416.89856 371.73495 A 53.263973 48.369446 0 1 1  310.37061,371.73495 A 53.263973 48.369446 0 1 1  416.89856 371.73495 z"
       transform="matrix(0.926632,0.000000,0.000000,1.020890,78.58935,-62.95890)"
       style="fill:#0a0ad9;fill-opacity:1.0000000;fill-rule:nonzero;stroke:none;stroke-width:1.2401575;stroke-linejoin:round;stroke-miterlimit:4.0000000;stroke-dasharray:none;stroke-opacity:1.0000000"
       id="path1307" />
    <g
       transform="translate(78.99117,-19.74779)"
       id="g4244">
      <path
         d="M 298.25276,367.29697 L 303.54598,353.45315 L 311.89299,358.13562 L 308.63562,367.70414 L 298.25276,367.29697 z "
         style="fill:#ffffff;fill-opacity:1.0000000;fill-rule:evenodd;stroke:none;stroke-width:1.0000000px;stroke-linecap:butt;stroke-linejoin:miter;stroke-opacity:1.0000000"
         id="path2781" />
      <path
         d="M 336.93400,366.48263 C 337.90103,370.19807 340.19137,376.05115 340.19137,376.05115 C 340.19137,376.05115 347.99129,372.54798 351.59215,368.72207 C 358.10689,361.80017 357.69972,351.01013 357.69972,351.01013 L 364.01087,367.29697 L 375.00449,367.50056 L 358.51406,327.80139 C 358.51406,327.80139 361.19980,327.20455 362.99294,322.10099 C 365.63955,314.56832 359.73558,304.79622 359.73558,304.79622 C 359.73558,304.79622 361.77143,310.90379 359.73557,315.38267 C 357.69972,319.86155 353.22084,319.86155 347.92762,325.96912 C 342.63439,332.07668 343.04156,333.09461 343.04156,333.09461 L 330.01210,333.50178 C 330.01210,333.50178 329.84630,333.63064 336.32324,327.80139 C 340.39495,324.13685 338.15551,318.23286 336.11966,316.40060 C 332.66562,313.29197 331.03002,313.75399 331.03002,313.75399 L 336.32324,300.31734 L 346.50252,324.54402 L 354.44235,318.02928 L 343.85591,292.98827 L 329.40133,292.78468 L 319.62923,313.75399 C 319.62923,313.75399 316.50096,314.44961 314.13242,317.01136 C 309.60874,321.90405 300.52741,338.37408 290.92367,328.41214 C 289.46335,324.76135 289.62073,321.53095 291.73802,323.11892 C 294.99539,325.56194 297.89764,325.67748 298.86351,321.08306 C 299.70279,317.09081 292.38551,313.27730 289.97390,319.76871 C 289.24295,321.73624 287.40225,326.63355 289.49858,333.29819 C 291.98517,341.20355 295.19897,343.27388 300.89936,348.77069 C 306.59976,354.26750 312.70732,357.72846 321.66509,358.74638 C 330.62285,359.76431 335.62997,356.86542 339.17344,352.23165 C 341.82005,348.77069 342.19808,344.31187 337.95193,341.84879 C 333.89775,339.49707 330.77298,340.62475 330.82643,338.99859 C 330.95367,335.12720 335.22896,336.13335 339.37702,335.94480 C 343.85590,335.74122 341.07274,340.70504 341.41287,343.07030 C 341.83753,346.02337 342.83339,349.72387 348.94554,354.06392 C 353.69891,357.43914 347.48042,360.31803 346.29893,361.18941 C 343.42551,363.30864 336.93400,366.48263 336.93400,366.48263 z "
         style="fill:#ffffff;fill-opacity:1.0000000;fill-rule:evenodd;stroke:none;stroke-width:1.0000000px;stroke-linecap:butt;stroke-linejoin:miter;stroke-opacity:1.0000000"
         id="path2783" />
      <path
         d="M 347.57413,337.68762 C 347.57413,337.68762 351.15199,339.16170 352.62799,344.47750 C 353.64407,348.13694 352.81368,352.63881 352.81368,352.63881 C 352.81368,352.63881 349.96348,354.06391 347.11328,348.36352 C 344.26308,342.66312 344.56631,335.54783 347.57413,337.68762 z "
         style="fill:#0808db;fill-opacity:1.0000000;fill-rule:evenodd;stroke:none;stroke-width:1.0000000px;stroke-linecap:butt;stroke-linejoin:miter;stroke-opacity:1.0000000"
         id="path2786" />
      <path
         d="M 348.94555,336.35197 L 352.20292,338.79500 L 350.37065,334.31612 L 348.94555,336.35197 z "
         style="fill:#0909db;fill-opacity:1.0000000;fill-rule:evenodd;stroke:none;stroke-width:1.0000000px;stroke-linecap:butt;stroke-linejoin:miter;stroke-opacity:1.0000000"
         id="path2788" />
      <path
         d="M 325.53322,339.40575 C 325.53322,339.40575 321.38443,342.77190 308.22845,342.05237 C 300.25664,341.62302 295.80974,335.53763 295.80974,335.53763 C 295.80974,335.53763 299.47427,338.79500 305.98901,339.81293 C 312.50375,340.83085 316.05753,339.10337 321.25792,337.36990 C 324.31170,336.35197 325.32964,335.13046 326.95832,336.96273 C 328.20531,338.36559 325.73680,339.60934 325.53322,339.40575 z "
         style="fill:#1708db;fill-opacity:1.0000000;fill-rule:evenodd;stroke:none;stroke-width:1.0000000px;stroke-linecap:butt;stroke-linejoin:miter;stroke-opacity:1.0000000"
         id="path2790" />
    </g>
  </g>
</svg>
