<?xml version="1.0" encoding="UTF-8" standalone="no"?>
<!-- Generator: Adobe Illustrator 12.0.0, SVG Export Plug-In . SVG Version: 6.00 Build 51448)  -->
<svg
   xmlns:dc="http://purl.org/dc/elements/1.1/"
   xmlns:cc="http://web.resource.org/cc/"
   xmlns:rdf="http://www.w3.org/1999/02/22-rdf-syntax-ns#"
   xmlns:svg="http://www.w3.org/2000/svg"
   xmlns="http://www.w3.org/2000/svg"
   xmlns:sodipodi="http://sodipodi.sourceforge.net/DTD/sodipodi-0.dtd"
   xmlns:inkscape="http://www.inkscape.org/namespaces/inkscape"
   version="1.0"
   id="Layer_1"
   width="187.75999"
   height="70"
   viewBox="0 0 192.756 192.756"
   overflow="visible"
   enable-background="new 0 0 192.756 192.756"
   xml:space="preserve"
   sodipodi:version="0.32"
   inkscape:version="0.44.1"
   sodipodi:docname="ESA.svg"
   sodipodi:docbase="C:\Documents and Settings\Sigurd\Mine dokumenter\Mine bilder"><metadata
   id="metadata3389"><rdf:RDF><cc:Work
       rdf:about=""><dc:format>image/svg+xml</dc:format><dc:type
         rdf:resource="http://purl.org/dc/dcmitype/StillImage" /></cc:Work></rdf:RDF></metadata><defs
   id="defs3387" /><sodipodi:namedview
   inkscape:window-height="719"
   inkscape:window-width="1024"
   inkscape:pageshadow="2"
   inkscape:pageopacity="0.0"
   guidetolerance="10.0"
   gridtolerance="10.0"
   objecttolerance="10.0"
   borderopacity="1.0"
   bordercolor="#666666"
   pagecolor="#ffffff"
   id="base"
   height="70px"
   width="187.76px"
   inkscape:zoom="1.9558406"
   inkscape:cx="96.377998"
   inkscape:cy="96.377998"
   inkscape:window-x="-4"
   inkscape:window-y="-4"
   inkscape:current-layer="Layer_1" />
<g
   id="g3272"
   transform="matrix(2.9435,0,0,2.9435,-188.1842,-186.1591)">
	
	<path
   clip-rule="evenodd"
   d="M 89.205,92.509 C 89.733,88.004 92.8,84.811 97.155,84.811 C 100.125,84.811 103.755,86.974 104.282,92.509 L 91.984,92.509 L 91.804,98.364 L 113.503,98.364 L 113.503,96.756 C 113.145,83.466 104.215,77.9 97.286,77.9 C 81.91,77.9 80.458,91.093 80.458,95.213 C 80.458,109.307 89.741,113.941 97.945,113.941 C 103.951,113.941 111.351,110.726 113.592,101.58 L 104.535,101.58 C 103.639,105.347 100.517,106.733 97.944,106.733 C 90.487,106.733 89.466,100.941 89.202,98.366 C 88.846,94.703 89.205,92.509 89.205,92.509 L 89.205,92.509 z "
   id="path3276"
   style="fill-rule:evenodd" />
	<path
   clip-rule="evenodd"
   d="M 138.163,89.563 C 138.163,87.053 136.405,83.735 131.788,83.735 C 127.171,83.735 125.699,86.087 125.699,87.604 C 125.699,94.406 146.796,88.309 146.796,102.048 C 146.796,112.273 137.682,114.119 132.639,114.119 C 125.287,114.119 117.809,110.903 117.085,101.578 L 125.071,101.578 C 125.071,104.547 127.402,107.945 132.882,107.497 C 137.242,107.141 138.7,104.691 138.7,103.372 C 138.7,96.288 117.898,102.048 117.898,88.923 C 117.898,83.778 121.215,77.817 131.301,77.817 C 137.62,77.817 145.155,79.67 145.822,89.563 L 138.163,89.563 L 138.163,89.563 z "
   id="path3278"
   style="fill-rule:evenodd" />
	<path
   clip-rule="evenodd"
   d="M 172.506,100.144 C 172.506,105.973 167.883,107.138 163.957,107.138 C 162.247,107.138 159.324,106.534 159.324,103.302 C 159.324,99.477 162.564,98.317 165.856,97.723 C 169.529,97.129 171.619,96.385 172.505,95.659 L 172.505,100.144 L 172.506,100.144 z M 180.934,88.936 C 180.934,79.79 173.044,77.458 167.123,77.458 C 160.221,77.458 153.064,78.699 152.052,89.45 L 160.042,89.45 C 160.295,87.406 161.614,84.004 166.047,84.004 C 168.326,84.004 172.147,84.327 172.147,88.218 C 172.147,90.197 169.775,91.607 168.381,91.805 L 160.401,92.971 C 154.765,93.828 150.268,97.036 150.268,103.896 C 150.268,111.151 157.311,113.952 162.373,113.774 C 167.484,113.594 170.748,112.184 172.774,110.007 C 172.993,112.29 173.392,111.206 173.85,112.697 L 182.279,112.697 C 182.279,112.697 180.933,110.491 180.933,106.336 L 180.933,88.936 L 180.934,88.936 z "
   id="path3280"
   style="fill-rule:evenodd" />
	<path
   clip-rule="evenodd"
   d="M 14.5,109.414 C 18.296,117.214 25.253,123.191 33.704,125.684 C 26.275,121.568 19.75,116.021 14.5,109.414 L 14.5,109.414 z "
   id="path3282"
   style="fill:#0073bb;fill-rule:evenodd" />
	<path
   clip-rule="evenodd"
   d="M 37.865,126.606 C 39.064,126.786 40.286,126.897 41.525,126.936 C 29.204,121.949 18.856,113.11 11.974,101.91 C 12.215,103.119 12.526,104.303 12.902,105.458 C 19.193,114.522 27.798,121.857 37.865,126.606 L 37.865,126.606 z "
   id="path3284"
   style="fill:#0073bb;fill-rule:evenodd" />
	<path
   clip-rule="evenodd"
   d="M 44.679,126.88 C 45.621,126.816 46.553,126.709 47.47,126.564 C 31.652,121.782 18.617,110.596 11.376,96.022 C 11.383,96.962 11.431,97.892 11.519,98.811 C 18.683,111.816 30.476,121.911 44.679,126.88 L 44.679,126.88 z "
   id="path3286"
   style="fill:#0073bb;fill-rule:evenodd" />
	<path
   clip-rule="evenodd"
   d="M 49.972,126.059 C 50.801,125.856 51.618,125.621 52.42,125.352 C 33.884,121.282 18.723,108.21 11.749,90.951 C 11.619,91.783 11.522,92.625 11.459,93.478 C 18.63,109.428 32.754,121.574 49.972,126.059 L 49.972,126.059 z "
   id="path3288"
   style="fill:#0073bb;fill-rule:evenodd" />
	<path
   clip-rule="evenodd"
   d="M 54.327,124.643 C 55.02,124.36 55.7,124.051 56.367,123.72 C 35.843,120.578 19.071,106.046 12.7,86.778 C 12.484,87.493 12.293,88.218 12.128,88.954 C 18.856,107.2 34.808,120.979 54.327,124.643 L 54.327,124.643 z "
   id="path3290"
   style="fill:#0073bb;fill-rule:evenodd" />
	<path
   clip-rule="evenodd"
   d="M 57.985,122.858 C 58.619,122.495 59.239,122.11 59.845,121.705 C 37.753,119.662 19.64,103.9 14.106,83.016 C 13.808,83.678 13.532,84.352 13.28,85.038 C 19.299,105.08 36.706,120.193 57.985,122.858 L 57.985,122.858 z "
   id="path3292"
   style="fill:#0073bb;fill-rule:evenodd" />
	<path
   clip-rule="evenodd"
   d="M 21.774,95.84 C 21.774,95.707 21.782,95.576 21.795,95.446 C 18.951,90.738 16.858,85.526 15.686,79.973 C 15.39,80.475 15.105,80.987 14.836,81.507 C 19.955,102.975 38.567,119.203 61.214,120.736 C 61.682,120.384 62.138,120.019 62.585,119.643 C 47.058,118.991 33.358,111.275 24.615,99.625 C 22.975,99.146 21.774,97.635 21.774,95.84 L 21.774,95.84 z "
   id="path3294"
   style="fill:#0073bb;fill-rule:evenodd" />
	<path
   clip-rule="evenodd"
   d="M 63.759,118.603 C 64.223,118.171 64.676,117.726 65.113,117.266 C 64.984,117.267 64.855,117.271 64.725,117.271 C 49.655,117.271 36.22,110.281 27.479,99.368 C 27.051,99.582 26.58,99.722 26.081,99.767 C 34.874,111.002 48.457,118.308 63.759,118.603 L 63.759,118.603 z "
   id="path3296"
   style="fill:#0073bb;fill-rule:evenodd" />
	<path
   clip-rule="evenodd"
   d="M 23.106,92.891 C 20.403,88.077 18.51,82.747 17.613,77.086 C 17.233,77.592 16.867,78.112 16.518,78.641 C 17.549,84.154 19.504,89.34 22.213,94.037 C 22.438,93.6 22.742,93.213 23.106,92.891 L 23.106,92.891 z "
   id="path3298"
   style="fill:#0073bb;fill-rule:evenodd" />
	<path
   clip-rule="evenodd"
   d="M 19.64,74.659 C 19.26,75.071 18.89,75.492 18.532,75.924 C 19.333,81.799 21.231,87.324 24.008,92.291 C 24.39,92.106 24.805,91.98 25.244,91.927 C 22.291,86.724 20.335,80.883 19.64,74.659 L 19.64,74.659 z "
   id="path3300"
   style="fill:#0073bb;fill-rule:evenodd" />
	<path
   clip-rule="evenodd"
   d="M 28.646,93.2 C 24.716,87.211 22.234,80.186 21.705,72.621 C 21.335,72.954 20.973,73.296 20.619,73.646 C 21.226,80.289 23.3,86.506 26.513,91.974 C 27.352,92.146 28.092,92.586 28.646,93.2 L 28.646,93.2 z "
   id="path3302"
   style="fill:#0073bb;fill-rule:evenodd" />
	<path
   clip-rule="evenodd"
   d="M 64.726,78.624 C 65.916,78.624 67.053,78.392 68.094,77.974 C 67.827,77.592 67.552,77.217 67.269,76.848 C 66.472,77.126 65.617,77.279 64.726,77.279 C 60.467,77.279 57.014,73.826 57.014,69.568 C 57.014,69.122 57.054,68.686 57.127,68.261 C 56.716,68.043 56.3,67.833 55.879,67.633 C 55.743,68.257 55.67,68.904 55.67,69.569 C 55.669,74.569 59.724,78.624 64.726,78.624 L 64.726,78.624 z "
   id="path3304"
   style="fill:#0073bb;fill-rule:evenodd" />
	<path
   clip-rule="evenodd"
   d="M 64.726,76.203 C 65.36,76.203 65.972,76.113 66.553,75.947 C 66.25,75.58 65.938,75.22 65.618,74.868 C 65.327,74.916 65.031,74.948 64.726,74.948 C 61.754,74.948 59.346,72.54 59.346,69.568 C 59.346,69.565 59.346,69.561 59.346,69.557 C 58.948,69.302 58.544,69.056 58.134,68.818 C 58.106,69.064 58.091,69.314 58.091,69.568 C 58.09,73.232 61.061,76.203 64.726,76.203 L 64.726,76.203 z "
   id="path3306"
   style="fill:#0073bb;fill-rule:evenodd" />
	<path
   clip-rule="evenodd"
   d="M 64.669,73.869 C 63.385,72.572 61.987,71.388 60.493,70.331 C 60.851,72.325 62.579,73.842 64.669,73.869 L 64.669,73.869 z "
   id="path3308"
   style="fill:#0073bb;fill-rule:evenodd" />
	<path
   clip-rule="evenodd"
   d="M 66.02,98.589 L 63.416,98.589 C 63.851,98.608 64.287,98.619 64.726,98.619 C 65.159,98.619 65.59,98.607 66.02,98.589 L 66.02,98.589 z "
   id="path3310"
   style="fill:#0073bb;fill-rule:evenodd" />
	<path
   clip-rule="evenodd"
   d="M 57.98,85.167 C 58.55,85.412 59.135,85.626 59.734,85.81 C 59.162,85.51 58.568,85.299 57.98,85.167 L 57.98,85.167 z "
   id="path3312"
   style="fill:#0073bb;fill-rule:evenodd" />
	<path
   clip-rule="evenodd"
   d="M 49.32,112.255 C 41.318,109.365 34.362,104.29 29.172,97.75 C 28.961,98.129 28.688,98.468 28.369,98.758 C 36.914,109.39 50.024,116.195 64.726,116.195 C 65.187,116.195 65.647,116.186 66.106,116.173 C 66.472,115.75 66.826,115.317 67.169,114.874 C 66.966,114.885 66.762,114.891 66.558,114.898 C 60.711,116.746 54.371,115.526 49.32,112.255 L 49.32,112.255 z "
   id="path3314"
   style="fill:#0073bb;fill-rule:evenodd" />
	<path
   clip-rule="evenodd"
   d="M 43.962,107.373 C 38.099,104.144 33.065,99.596 29.268,94.123 C 29.52,94.643 29.666,95.224 29.666,95.84 C 29.666,96.082 29.641,96.318 29.599,96.548 C 33.951,102.207 39.641,106.782 46.193,109.806 C 45.389,109.054 44.642,108.241 43.962,107.373 L 43.962,107.373 z "
   id="path3316"
   style="fill:#0073bb;fill-rule:evenodd" />
	<path
   clip-rule="evenodd"
   d="M 24.121,70.657 C 23.676,70.983 23.24,71.321 22.813,71.669 C 23.509,85.774 31.17,98.046 42.428,105.122 C 41.969,104.342 41.558,103.529 41.206,102.685 C 31.134,95.52 24.469,83.876 24.121,70.657 L 24.121,70.657 z "
   id="path3318"
   style="fill:#0073bb;fill-rule:evenodd" />
	<path
   clip-rule="evenodd"
   d="M 52.626,105.902 C 54.428,107.393 56.882,108.482 60.152,108.482 C 61.932,108.482 63.562,108.254 65.019,107.852 C 64.921,107.852 64.823,107.855 64.725,107.855 C 60.497,107.855 56.43,107.168 52.626,105.902 L 52.626,105.902 z "
   id="path3320"
   style="fill:#0073bb;fill-rule:evenodd" />
	<path
   clip-rule="evenodd"
   d="M 26.438,69.567 C 26.438,69.413 26.442,69.26 26.443,69.106 C 26.048,69.345 25.659,69.593 25.276,69.849 C 25.364,82.393 31.306,93.546 40.505,100.712 C 40.324,100.101 40.172,99.478 40.051,98.842 C 31.727,91.819 26.438,81.312 26.438,69.567 L 26.438,69.567 z "
   id="path3322"
   style="fill:#0073bb;fill-rule:evenodd" />
	<path
   clip-rule="evenodd"
   d="M 73.042,102.155 C 73.036,102.157 73.029,102.158 73.023,102.16 L 73.037,102.176 C 73.038,102.169 73.04,102.162 73.042,102.155 L 73.042,102.155 z "
   id="path3324"
   style="fill:#0073bb;fill-rule:evenodd" />
	<path
   clip-rule="evenodd"
   d="M 64.726,104.448 C 67.001,104.448 69.224,104.225 71.378,103.809 C 71.724,103.341 72.012,102.851 72.236,102.346 C 69.82,102.898 67.308,103.192 64.726,103.192 C 58.807,103.192 53.246,101.661 48.414,98.975 C 48.514,99.46 48.679,100.038 48.921,100.668 C 53.666,103.085 59.036,104.448 64.726,104.448 L 64.726,104.448 z "
   id="path3326"
   style="fill:#0073bb;fill-rule:evenodd" />
	<path
   clip-rule="evenodd"
   d="M 31.1,69.567 C 31.1,68.62 31.141,67.682 31.218,66.754 C 30.781,66.924 30.348,67.106 29.921,67.295 C 29.873,68.046 29.845,68.803 29.845,69.566 C 29.845,79.047 33.63,87.644 39.769,93.931 C 39.811,93.445 39.878,92.906 39.977,92.327 C 34.466,86.339 31.1,78.347 31.1,69.567 L 31.1,69.567 z "
   id="path3328"
   style="fill:#0073bb;fill-rule:evenodd" />
	<path
   clip-rule="evenodd"
   d="M 51.207,97.699 C 50.16,97.196 49.147,96.633 48.169,96.02 C 48.181,96.485 48.206,96.992 48.246,97.536 C 53.077,100.388 58.709,102.027 64.725,102.027 C 67.684,102.027 70.551,101.629 73.275,100.887 C 73.349,100.437 73.414,99.985 73.468,99.529 C 70.693,100.338 67.76,100.772 64.725,100.772 C 60.668,100.772 56.793,99.998 53.238,98.589 L 51.203,98.589 L 51.207,97.699 L 51.207,97.699 z "
   id="path3330"
   style="fill:#0073bb;fill-rule:evenodd" />
	<path
   clip-rule="evenodd"
   d="M 33.521,69.567 C 33.521,68.325 33.596,67.1 33.737,65.896 C 33.296,66.025 32.86,66.164 32.427,66.312 C 32.321,67.383 32.265,68.469 32.265,69.567 C 32.265,77.737 35.284,85.201 40.267,90.907 C 40.381,90.433 40.515,89.946 40.673,89.448 C 36.207,84.05 33.521,77.123 33.521,69.567 L 33.521,69.567 z "
   id="path3332"
   style="fill:#0073bb;fill-rule:evenodd" />
	<path
   clip-rule="evenodd"
   d="M 35.673,69.567 C 35.673,68.127 35.779,66.711 35.982,65.327 C 35.605,65.408 35.231,65.494 34.859,65.588 C 34.687,66.89 34.597,68.218 34.597,69.567 C 34.597,76.628 37.027,83.121 41.095,88.257 C 41.242,87.88 41.403,87.502 41.578,87.123 C 37.873,82.247 35.673,76.164 35.673,69.567 L 35.673,69.567 z "
   id="path3334"
   style="fill:#0073bb;fill-rule:evenodd" />
	<path
   clip-rule="evenodd"
   d="M 66.02,98.589 C 65.59,98.608 65.159,98.619 64.726,98.619 C 64.287,98.619 63.851,98.607 63.416,98.589 L 56.611,98.589 C 59.193,99.31 61.913,99.695 64.725,99.695 C 67.808,99.695 70.784,99.231 73.585,98.371 C 73.616,97.988 73.641,97.604 73.658,97.218 C 73.314,97.329 72.966,97.434 72.616,97.532 L 72.616,98.589 L 66.02,98.589 L 66.02,98.589 z "
   id="path3336"
   style="fill:#0073bb;fill-rule:evenodd" />
	<path
   clip-rule="evenodd"
   d="M 51.214,95.291 C 50.176,94.745 49.175,94.137 48.216,93.474 C 48.192,93.811 48.171,94.235 48.162,94.735 C 49.14,95.38 50.157,95.969 51.21,96.499 L 51.214,95.291 L 51.214,95.291 z "
   id="path3338"
   style="fill:#0073bb;fill-rule:evenodd" />
	<path
   clip-rule="evenodd"
   d="M 38.094,69.567 C 38.094,67.973 38.235,66.411 38.503,64.894 C 38.065,64.951 37.63,65.017 37.197,65.092 C 36.962,66.549 36.838,68.044 36.838,69.567 C 36.838,75.696 38.817,81.361 42.168,85.963 C 42.387,85.57 42.623,85.181 42.879,84.798 C 39.864,80.483 38.094,75.232 38.094,69.567 L 38.094,69.567 z "
   id="path3340"
   style="fill:#0073bb;fill-rule:evenodd" />
	<path
   clip-rule="evenodd"
   d="M 73.69,95.981 C 73.69,95.919 73.692,95.857 73.692,95.794 C 73.692,95.413 73.683,95.034 73.669,94.657 C 73.288,94.793 72.902,94.918 72.513,95.037 C 72.55,95.458 72.578,95.887 72.596,96.326 C 72.963,96.219 73.328,96.104 73.69,95.981 L 73.69,95.981 z "
   id="path3342"
   style="fill:#0073bb;fill-rule:evenodd" />
	<path
   clip-rule="evenodd"
   d="M 51.223,92.525 C 50.335,92.002 49.481,91.429 48.663,90.81 C 48.536,91.239 48.436,91.687 48.365,92.151 C 49.276,92.812 50.229,93.419 51.218,93.968 L 51.223,92.525 L 51.223,92.525 z "
   id="path3344"
   style="fill:#0073bb;fill-rule:evenodd" />
	<path
   clip-rule="evenodd"
   d="M 56.488,92.435 C 53.992,91.536 51.687,90.24 49.647,88.624 C 49.439,88.953 49.252,89.301 49.087,89.667 C 50.438,90.719 51.898,91.637 53.446,92.404 L 56.488,92.435 L 56.488,92.435 z "
   id="path3346"
   style="fill:#0073bb;fill-rule:evenodd" />
	<path
   clip-rule="evenodd"
   d="M 40.425,69.567 C 40.425,67.892 40.594,66.256 40.918,64.676 C 40.514,64.697 40.114,64.727 39.714,64.763 C 39.417,66.319 39.259,67.924 39.259,69.566 C 39.259,74.839 40.862,79.737 43.606,83.801 C 43.854,83.488 44.118,83.181 44.397,82.882 C 41.887,79.059 40.425,74.484 40.425,69.567 L 40.425,69.567 z "
   id="path3348"
   style="fill:#0073bb;fill-rule:evenodd" />
	<path
   clip-rule="evenodd"
   d="M 73.604,93.441 C 73.574,93.037 73.534,92.636 73.489,92.237 C 73.066,92.401 72.635,92.549 72.2,92.689 C 72.269,93.07 72.33,93.459 72.383,93.856 C 72.794,93.727 73.202,93.591 73.604,93.441 L 73.604,93.441 z "
   id="path3350"
   style="fill:#0073bb;fill-rule:evenodd" />
	<path
   clip-rule="evenodd"
   d="M 73.344,91.132 C 73.281,90.708 73.207,90.287 73.127,89.868 C 72.648,90.066 72.159,90.242 71.665,90.407 C 71.78,90.802 71.885,91.207 71.98,91.623 C 72.441,91.471 72.897,91.311 73.344,91.132 L 73.344,91.132 z "
   id="path3352"
   style="fill:#0073bb;fill-rule:evenodd" />
	<path
   clip-rule="evenodd"
   d="M 63.784,92.509 C 63.751,92.161 63.705,91.828 63.647,91.509 C 58.95,91.281 54.644,89.576 51.174,86.852 C 50.855,87.124 50.559,87.425 50.285,87.749 C 53.314,90.158 56.956,91.826 60.941,92.479 L 63.784,92.509 L 63.784,92.509 z "
   id="path3354"
   style="fill:#0073bb;fill-rule:evenodd" />
	<path
   clip-rule="evenodd"
   d="M 42.757,69.567 C 42.757,67.874 42.955,66.228 43.317,64.645 C 43.056,64.639 42.795,64.635 42.532,64.635 C 42.364,64.635 42.197,64.638 42.03,64.641 C 41.687,66.229 41.502,67.875 41.502,69.566 C 41.502,74.186 42.856,78.487 45.182,82.105 C 45.489,81.824 45.811,81.551 46.152,81.292 C 44.004,77.899 42.757,73.88 42.757,69.567 L 42.757,69.567 z "
   id="path3356"
   style="fill:#0073bb;fill-rule:evenodd" />
	<path
   clip-rule="evenodd"
   d="M 62.885,89.116 C 59.344,88.787 56.078,87.516 53.335,85.558 C 52.892,85.732 52.471,85.943 52.075,86.191 C 55.253,88.613 59.146,90.144 63.384,90.413 C 63.244,89.946 63.076,89.514 62.885,89.116 L 62.885,89.116 z "
   id="path3358"
   style="fill:#0073bb;fill-rule:evenodd" />
	<path
   clip-rule="evenodd"
   d="M 45.088,69.567 C 45.088,67.92 45.294,66.321 45.676,64.793 C 45.257,64.751 44.835,64.719 44.41,64.694 C 44.036,66.258 43.832,67.889 43.832,69.568 C 43.832,73.651 45.008,77.457 47.032,80.675 C 47.378,80.451 47.738,80.238 48.115,80.039 C 46.201,77.007 45.088,73.418 45.088,69.567 L 45.088,69.567 z "
   id="path3360"
   style="fill:#0073bb;fill-rule:evenodd" />
	<path
   clip-rule="evenodd"
   d="M 72.903,88.798 C 72.807,88.382 72.702,87.971 72.59,87.562 C 72.036,87.804 71.467,88.019 70.888,88.21 C 71.049,88.589 71.197,88.982 71.337,89.385 C 71.869,89.208 72.392,89.015 72.903,88.798 L 72.903,88.798 z "
   id="path3362"
   style="fill:#0073bb;fill-rule:evenodd" />
	<path
   clip-rule="evenodd"
   d="M 71.507,84.312 C 71.341,83.894 71.167,83.481 70.984,83.073 C 70.151,83.46 69.275,83.767 68.367,83.996 C 68.667,84.365 68.957,84.75 69.233,85.157 C 70.016,84.93 70.777,84.648 71.507,84.312 L 71.507,84.312 z "
   id="path3364"
   style="fill:#0073bb;fill-rule:evenodd" />
	<path
   clip-rule="evenodd"
   d="M 49.84,69.567 C 49.84,68.204 50.027,66.884 50.37,65.63 C 49.937,65.518 49.5,65.416 49.059,65.322 C 48.693,66.675 48.495,68.097 48.495,69.567 C 48.495,72.992 49.558,76.167 51.369,78.785 C 51.828,78.665 52.304,78.561 52.798,78.474 C 50.941,75.991 49.84,72.908 49.84,69.567 L 49.84,69.567 z "
   id="path3366"
   style="fill:#0073bb;fill-rule:evenodd" />
	<path
   clip-rule="evenodd"
   d="M 52.172,69.567 C 52.172,68.436 52.324,67.341 52.604,66.3 C 52.208,66.165 51.81,66.039 51.407,65.92 C 51.09,67.083 50.917,68.304 50.917,69.567 C 50.917,72.881 52.085,75.921 54.031,78.301 C 54.539,78.246 55.064,78.208 55.607,78.19 C 53.479,75.941 52.172,72.908 52.172,69.567 L 52.172,69.567 z "
   id="path3368"
   style="fill:#0073bb;fill-rule:evenodd" />
	<path
   clip-rule="evenodd"
   d="M 67.566,83.078 C 68.6,82.861 69.591,82.532 70.526,82.099 C 70.341,81.722 70.151,81.349 69.951,80.981 C 68.855,81.484 67.674,81.831 66.436,82 C 66.825,82.336 67.202,82.694 67.566,83.078 L 67.566,83.078 z "
   id="path3370"
   style="fill:#0073bb;fill-rule:evenodd" />
	<path
   clip-rule="evenodd"
   d="M 69.419,80.041 C 69.19,79.651 68.953,79.266 68.708,78.887 C 67.485,79.41 66.139,79.701 64.726,79.701 C 63.872,79.701 63.042,79.594 62.25,79.394 C 63.26,79.821 64.253,80.364 65.201,81.033 C 66.699,80.971 68.123,80.623 69.419,80.041 L 69.419,80.041 z "
   id="path3372"
   style="fill:#0073bb;fill-rule:evenodd" />
	<path
   clip-rule="evenodd"
   d="M 54.593,69.567 C 54.593,68.744 54.694,67.945 54.879,67.179 C 54.463,67 54.044,66.829 53.619,66.667 C 53.378,67.594 53.249,68.565 53.249,69.567 C 53.249,73.009 54.766,76.095 57.166,78.199 C 58.24,78.258 59.35,78.44 60.461,78.758 C 56.996,77.147 54.593,73.639 54.593,69.567 L 54.593,69.567 z "
   id="path3374"
   style="fill:#0073bb;fill-rule:evenodd" />
	<path
   clip-rule="evenodd"
   d="M 47.554,69.343 C 47.554,67.89 47.736,66.479 48.075,65.131 C 47.666,65.058 47.255,64.99 46.84,64.933 C 46.458,66.413 46.254,67.967 46.254,69.567 C 46.254,73.239 47.33,76.658 49.177,79.534 C 49.611,79.348 50.062,79.178 50.535,79.027 C 48.655,76.268 47.554,72.934 47.554,69.343 L 47.554,69.343 z "
   id="path3376"
   style="fill:#0073bb;fill-rule:evenodd" />
	<path
   clip-rule="evenodd"
   d="M 59.734,85.809 C 59.135,85.626 58.55,85.411 57.98,85.166 C 57.452,85.047 56.929,84.99 56.431,84.99 C 55.866,84.99 55.32,85.042 54.797,85.14 C 56.972,86.53 59.456,87.476 62.125,87.853 C 61.444,86.938 60.614,86.269 59.734,85.809 L 59.734,85.809 z "
   id="path3378"
   style="fill:#0073bb;fill-rule:evenodd" />
	<path
   clip-rule="evenodd"
   d="M 72.26,86.432 C 72.114,85.971 71.955,85.515 71.789,85.063 C 71.107,85.368 70.4,85.625 69.675,85.841 C 69.928,86.257 70.168,86.693 70.394,87.146 C 71.031,86.94 71.654,86.702 72.26,86.432 L 72.26,86.432 z "
   id="path3380"
   style="fill:#0073bb;fill-rule:evenodd" />
	<path
   clip-rule="evenodd"
   d="M 28.724,69.478 C 28.724,68.929 28.738,68.383 28.763,67.839 C 28.347,68.044 27.936,68.257 27.531,68.48 C 27.521,68.842 27.514,69.204 27.514,69.567 C 27.514,80.536 32.261,90.395 39.811,97.206 C 39.75,96.614 39.718,96.013 39.712,95.405 C 32.937,88.844 28.724,79.653 28.724,69.478 L 28.724,69.478 z "
   id="path3382"
   style="fill:#0073bb;fill-rule:evenodd" />
	<path
   clip-rule="evenodd"
   d="M 49.644,102.232 C 49.984,102.859 50.398,103.499 50.89,104.12 C 55.167,105.834 59.836,106.779 64.726,106.779 C 65.851,106.779 66.965,106.725 68.065,106.628 C 68.84,106.2 69.53,105.712 70.128,105.176 C 68.394,105.433 66.621,105.569 64.815,105.569 C 59.396,105.568 54.256,104.372 49.644,102.232 L 49.644,102.232 z "
   id="path3384"
   style="fill:#0073bb;fill-rule:evenodd" />
</g>
</svg>