<?xml version="1.0" encoding="UTF-8" standalone="no"?>
<!-- Created with Inkscape (http://www.inkscape.org/) -->
<svg
   xmlns:svg="http://www.w3.org/2000/svg"
   xmlns="http://www.w3.org/2000/svg"
   version="1.0"
   width="227.22"
   height="227.22"
   id="svg2">
  <defs
     id="defs4" />
  <g
     transform="translate(178.125,-486.03125)"
     id="layer1">
    <g
       transform="translate(-2862.8571,-1196.2092)"
       id="g2398">
      <g
         transform="translate(1.5006256,1.5006256)"
         id="g3299">
        <path
           d="M -66,486.03125 C -127.88437,486.03125 -178.125,536.24063 -178.125,598.125 C -178.125,660.00937 -127.88437,710.25 -66,710.25 C -4.1156287,710.25 46.093748,660.00938 46.09375,598.125 C 46.09375,536.24063 -4.1156312,486.03126 -66,486.03125 z M -93.6875,497.09375 C -92.9567,497.09375 -92.718753,500.25001 -92.71875,500.25 C -92.16285,500.25 -90.875002,501.51861 -90.875,502.0625 C -90.875,502.0625 -88.218752,502.33295 -88.21875,502.96875 C -88.21875,503.63885 -91.062496,503.875 -91.0625,503.875 C -91.0625,504.2593 -92.372098,505.25001 -92.75,505.25 C -92.75,505.25 -92.9445,508.53125 -93.6875,508.53125 C -94.4475,508.53125 -94.656253,505.31249 -94.65625,505.3125 C -95.01935,505.3125 -96.625,504.3417 -96.625,503.9375 C -96.625,503.9375 -99.687497,503.65555 -99.6875,502.96875 C -99.6875,502.26485 -96.749997,501.99999 -96.75,502 C -96.75,501.2941 -95.409053,500.125 -94.65625,500.125 C -94.65625,500.125 -94.401197,497.09374 -93.6875,497.09375 z M -66.5625,497.75 L -64.6875,531.65625 C -64.6875,531.65625 -52.766702,524.367 -42.5625,524.25 C -29.6553,524.1011 -25.500001,537.9375 -25.5,537.9375 C -25.5,537.9375 -25.4549,535.5 -24.75,535.5 C -24.021,535.5 -23.9375,540.34374 -23.9375,540.34375 C -23.1859,540.34375 -22.3125,541.2806 -22.3125,541.875 C -22.3125,541.875 -17.5625,541.95634 -17.5625,542.78125 C -17.5625,543.58195 -22.3125,543.59374 -22.3125,543.59375 C -22.3125,544.26125 -23.3769,545.15624 -23.9375,545.15625 C -23.9375,545.15625 -23.8988,549.96874 -24.75,549.96875 C -25.6254,549.96875 -25.6875,545.1875 -25.6875,545.1875 C -26.3119,545.1875 -27.25,544.14774 -27.25,543.59375 C -27.25,543.59375 -32.000002,543.6271 -32,542.75 C -32,541.8246 -27.437501,541.875 -27.4375,541.875 C -27.4375,541.875 -27,541.56252 -27,541.3125 C -27,541.0633 -30.323798,529.5625 -42.0625,529.5625 C -49.6933,529.5625 -64.437498,537.6875 -64.4375,537.6875 L -62.6875,573.9375 L -58.625,567.5 L -60.5625,576.46875 L -58.625,576.46875 L -20.625,555.875 L -49.0625,576.65625 L 2.75,578.59375 C 2.75,578.59375 -38.250002,581.59364 -38.25,581.59375 C 4.7763,590.64235 28.125,627.4375 28.125,627.4375 C 28.125,627.4375 -9.7592021,585.6875 -66.875,585.6875 C -123.8462,585.6875 -160.12501,628.375 -160.125,628.375 C -160.125,628.375 -152.49689,615.2049 -137.3125,603.0625 C -131.155,593.4504 -118.5625,579.875 -118.5625,579.875 L -136.9375,578.375 L -116.5625,577.75 L -102.75,563.03125 L -112.625,555.78125 L -101.625,561.6875 C -101.625,561.6875 -80.738402,540.97724 -68.375,533.84375 C -68.375,533.84375 -66.562502,497.75 -66.5625,497.75 z M -68.6875,540.5625 C -83.2935,550.2258 -95.875002,564.625 -95.875,564.625 L -74.1875,576.46875 L -72.375,576.46875 L -74.4375,567.5 L -70.25,573.9375 C -70.25,573.9375 -68.687498,540.5625 -68.6875,540.5625 z M -97.625,566.53125 L -107.125,577.5 L -83.5625,576.8125 L -97.625,566.53125 z M -109.8125,580.4375 L -120.9375,592.1875 C -120.9375,592.1875 -111.5639,586.39094 -93.5,581.78125 C -93.5,581.78125 -109.8125,580.4375 -109.8125,580.4375 z M -13.5,639.90625 C -9.1954,640.05635 -5.8437502,641.81252 -5.84375,641.8125 L -9.625,647.5625 C -9.625,647.5625 -12.02645,646.29482 -13.15625,646.1875 C -14.39395,646.0699 -17.101151,645.69978 -17.21875,646.9375 C -17.39435,648.7865 -13.5956,648.44111 -11.5,649.125 C -9.0945,649.91 -6.2173999,651.87048 -8.0625,656.9375 C -9.508,660.9076 -15.6229,663.28127 -20.5625,663.28125 C -25.5367,663.28125 -30.656249,661.21876 -30.65625,661.21875 L -26.34375,654.8125 C -26.34375,654.8125 -23.261149,656.97237 -21.71875,657.09375 C -20.05015,657.22515 -17.91065,656.887 -17.65625,655.9375 C -17.25495,654.4398 -20.06775,654.50458 -21.65625,654.25 C -28.54875,653.1451 -27.883,648.30184 -26.5625,646.09375 C -23.8702,641.59195 -18.3658,639.73795 -13.5,639.90625 z M -133.71875,639.96875 C -130.71744,640.05187 -127.09375,640.875 -127.09375,640.875 L -128.40625,649.5 C -128.40625,649.50003 -130.7787,647.3125 -134.0625,647.3125 C -137.2139,647.31248 -139.9717,650.02285 -139.9375,652.34375 C -139.9108,654.15534 -137.92845,656.125 -135.21875,656.125 C -132.70265,656.12497 -129.21875,654.0625 -129.21875,654.0625 L -131.03125,662.5 C -131.03124,662.50003 -132.3555,663.25145 -138.9375,663.34375 C -145.51999,663.43616 -150.0609,659.0346 -150,653.3125 C -149.90899,644.80739 -139.73955,639.80185 -133.71875,639.96875 z M -111.40625,639.96875 C -107.10175,640.11885 -103.75,641.90626 -103.75,641.90625 L -107.53125,647.65625 C -107.53125,647.65625 -109.9327,646.35731 -111.0625,646.25 C -112.3002,646.1324 -115.0075,645.79358 -115.125,647.03125 C -115.3006,648.88025 -111.50175,648.50359 -109.40625,649.1875 C -107.00075,649.9725 -104.0925,651.96422 -105.9375,657.03125 C -107.3831,661.00135 -113.4978,663.34376 -118.4375,663.34375 C -123.4117,663.34375 -128.56249,661.3125 -128.5625,661.3125 L -124.25,654.90625 C -124.25,654.90625 -121.1674,657.03486 -119.625,657.15625 C -117.9564,657.28765 -115.8169,656.98074 -115.5625,656.03125 C -115.1612,654.53355 -117.9741,654.59837 -119.5625,654.34375 C -126.455,653.23885 -125.78935,648.39558 -124.46875,646.1875 C -121.77655,641.6857 -116.27215,639.80043 -111.40625,639.96875 z M 11.34375,639.96875 C 14.34505,640.05193 17.96875,640.875 17.96875,640.875 L 16.65625,649.5 C 16.656251,649.50003 14.2837,647.3125 11,647.3125 C 7.8486,647.3125 5.0908,650.02295 5.125,652.34375 C 5.1517002,654.15536 7.1028,656.125 9.8125,656.125 C 12.3286,656.12497 15.84375,654.0625 15.84375,654.0625 L 14.03125,662.5 C 14.03125,662.50003 12.707,663.25135 6.125,663.34375 C -0.45750017,663.43606 -4.9984,659.0347 -4.9375,653.3125 C -4.8465999,644.80751 5.32295,639.80195 11.34375,639.96875 z M -47.8125,640.09375 L -37.15625,640.09375 L -31.5625,662.8125 L -42.0625,662.8125 L -42.34375,660.03125 L -49.75,660.03125 L -51.1875,662.8125 L -61.28125,662.8125 L -47.8125,640.09375 z M -92.625,640.1875 L -81.96875,640.1875 L -76.375,662.90625 L -86.875,662.90625 L -87.15625,660.125 L -94.5625,660.125 L -96,662.90625 L -106.09375,662.90625 L -92.625,640.1875 z M -43.875,647.8125 L -46.84375,654.4375 L -43.25,654.4375 L -43.875,647.8125 z M -88.6875,647.90625 L -91.65625,654.53125 L -88.0625,654.53125 L -88.6875,647.90625 z"
           transform="translate(2862.8571,1196.2092)"
           id="path2416"
           style="fill:#1b3e8f;fill-opacity:1;stroke:none;stroke-width:2;stroke-linecap:round;stroke-linejoin:bevel;stroke-miterlimit:4;stroke-dashoffset:0;stroke-opacity:1" />
        <path
           d="M 2796.8407,1792.5326 L 2793.4863,1798.8047 C 2793.1057,1799.4866 2792.4238,1799.4235 2791.7418,1799.0425 L 2789.3133,1797.7819 L 2791.1232,1807.416 C 2791.5038,1809.1762 2790.2827,1809.1762 2789.6801,1808.4152 L 2785.4419,1803.6584 L 2784.7536,1806.0739 C 2784.6745,1806.3911 2784.3256,1806.7244 2783.8022,1806.6452 L 2778.4428,1805.5155 L 2779.8506,1810.6461 C 2780.1519,1811.7878 2780.3868,1812.2604 2779.5463,1812.5616 L 2777.6363,1813.4616 L 2786.8616,1820.9745 C 2787.227,1821.2587 2787.4114,1821.7698 2787.2812,1822.2327 L 2786.4738,1824.8893 C 2789.6504,1824.522 2792.4982,1824.1935 2795.6748,1823.8269 C 2795.957,1823.8235 2796.083,1824.0639 2796.081,1824.3897 L 2795.6602,1834.1222 L 2797.8886,1834.1222 L 2797.7138,1824.4108 C 2797.7117,1824.0848 2797.7259,1823.8235 2798.0082,1823.8269 C 2801.1846,1824.1935 2804.0325,1824.522 2807.2092,1824.8893 L 2806.4015,1822.2327 C 2806.2715,1821.7698 2806.456,1821.2587 2806.8212,1820.9745 L 2816.0467,1813.4616 L 2814.1366,1812.5616 C 2813.296,1812.2604 2813.531,1811.7878 2813.8323,1810.6461 L 2815.2401,1805.5155 L 2809.8808,1806.6452 C 2809.3573,1806.7244 2809.0085,1806.3911 2808.9293,1806.0739 L 2808.2411,1803.6584 L 2804.0029,1808.4152 C 2803.4,1809.1762 2802.179,1809.1762 2802.5598,1807.416 L 2804.3695,1797.7819 L 2801.9412,1799.0425 C 2801.2591,1799.4235 2800.5773,1799.4866 2800.1966,1798.8047 L 2796.8407,1792.5326 z"
           id="maple_leaf"
           style="fill:#ff0000;stroke:#ffffff;stroke-width:1.25600004;stroke-miterlimit:4;stroke-dasharray:none;stroke-opacity:1" />
      </g>
    </g>
  </g>
</svg>
