<?xml version="1.0" encoding="UTF-8" standalone="no"?>
<!-- Created with Inkscape (http://www.inkscape.org/) -->
<svg
   xmlns:dc="http://purl.org/dc/elements/1.1/"
   xmlns:cc="http://web.resource.org/cc/"
   xmlns:rdf="http://www.w3.org/1999/02/22-rdf-syntax-ns#"
   xmlns:svg="http://www.w3.org/2000/svg"
   xmlns="http://www.w3.org/2000/svg"
   xmlns:sodipodi="http://sodipodi.sourceforge.net/DTD/sodipodi-0.dtd"
   xmlns:inkscape="http://www.inkscape.org/namespaces/inkscape"
   version="1.0"
   width="170"
   height="73"
   viewBox="0 0 800 288.838"
   id="Layer_1"
   xml:space="preserve"
   sodipodi:version="0.32"
   inkscape:version="0.44.1"
   sodipodi:docname="ESA LOGO.svg"
   sodipodi:docbase="C:\Documents and Settings\Sigurd\Skrivebord\BILDER TIL WIKIPEDIA"><metadata
   id="metadata63"><rdf:RDF><cc:Work
       rdf:about=""><dc:format>image/svg+xml</dc:format><dc:type
         rdf:resource="http://purl.org/dc/dcmitype/StillImage" /></cc:Work></rdf:RDF></metadata><sodipodi:namedview
   inkscape:window-height="975"
   inkscape:window-width="1280"
   inkscape:pageshadow="2"
   inkscape:pageopacity="0.0"
   guidetolerance="10.0"
   gridtolerance="10.0"
   objecttolerance="10.0"
   borderopacity="1.0"
   bordercolor="#666666"
   pagecolor="#ffffff"
   id="base"
   inkscape:zoom="1.0181848"
   inkscape:cx="249.73884"
   inkscape:cy="144.41901"
   inkscape:window-x="-4"
   inkscape:window-y="-4"
   inkscape:current-layer="Layer_1"
   width="170px"
   height="73px" /><defs
   id="defs120" />
<g
   id="g3">
	<g
   id="g5">
		<path
   d="M 19.093,215.859 C 35.72,244.496 60.971,266.667 91.763,278.676 C 72.056,266.666 53.581,252.502 36.952,235.259 C 30.485,229.408 24.942,222.942 19.093,215.859 z "
   style="fill:#4b7ab7"
   id="path7" />
		<path
   d="M 3.696,176.136 C 5.235,182.294 7.083,188.146 8.931,193.688 C 18.476,207.237 28.638,219.556 40.646,231.563 C 63.433,253.734 88.376,271.902 115.166,285.76 C 121.324,286.99 127.791,287.915 133.641,288.531 C 101.308,274.057 71.133,253.734 44.958,227.56 C 28.639,211.855 15.397,194.304 3.696,176.136 z "
   style="fill:#4b7ab7"
   id="path9" />
		<path
   d="M 0,147.499 C 0,152.118 0.616,156.735 0.925,161.048 C 13.549,183.526 29.562,204.775 48.653,223.865 C 78.215,253.427 112.396,274.982 149.039,288.838 C 153.658,288.838 158.278,288.531 162.895,287.915 C 122.558,274.673 84.683,251.886 52.35,219.555 C 30.485,198 13.549,173.365 0,147.499 z "
   style="fill:#4b7ab7"
   id="path11" />
		<path
   d="M 1.541,124.712 C 0.925,128.408 0.616,132.103 0.616,135.798 C 13.549,164.742 32.333,191.839 56.352,215.859 C 90.84,250.04 131.486,273.134 174.904,285.76 C 178.6,285.144 182.295,284.219 185.991,282.987 C 140.109,271.903 96.383,247.883 60.047,211.856 C 34.181,185.99 14.781,155.813 1.541,124.712 z "
   style="fill:#4b7ab7"
   id="path13" />
		<path
   d="M 5.542,104.389 C 4.619,107.469 3.696,110.856 3.387,113.934 C 16.32,148.115 36.645,180.448 64.358,208.162 C 101.924,245.421 147.499,269.438 196.151,279.6 C 198.922,278.677 202.001,277.445 205.388,275.906 C 154.889,266.667 106.853,242.65 68.052,204.466 C 38.8,174.904 18.168,141.341 5.542,104.389 z "
   style="fill:#4b7ab7"
   id="path15" />
		<path
   d="M 12.01,87.144 C 10.778,89.917 9.855,92.688 8.316,95.46 C 20.324,134.258 41.263,169.671 71.75,200.156 C 112.087,240.493 161.972,263.896 213.705,271.903 C 216.476,270.364 218.631,268.516 221.402,267.284 C 168.439,260.819 116.706,237.106 75.751,196.46 C 44.343,164.742 23.096,127.483 12.01,87.144 z "
   style="fill:#4b7ab7"
   id="path17" />
		<path
   d="M 61.895,163.819 C 53.582,161.971 47.114,154.581 47.114,145.344 C 47.114,144.419 47.114,143.496 47.114,142.573 C 34.181,120.402 24.942,96.382 19.4,72.056 C 18.168,74.211 16.629,76.675 15.706,79.446 C 25.867,121.017 47.113,160.122 79.446,192.455 C 121.324,234.026 174.287,257.43 228.484,262.663 C 230.639,260.817 233.101,259.276 235.258,257.43 C 179.831,253.734 125.943,230.639 83.756,188.761 C 75.75,180.755 68.362,172.441 61.895,163.819 z "
   style="fill:#4b7ab7"
   id="path19" />
		<path
   d="M 53.581,131.486 C 41.262,108.392 32.333,84.065 28.33,58.507 C 26.791,60.971 25.559,62.817 23.711,64.974 C 28.33,89.916 36.953,113.933 49.886,136.105 C 50.81,134.257 52.349,133.025 53.581,131.486 z "
   style="fill:#4b7ab7"
   id="path21" />
		<path
   d="M 74.52,161.971 C 72.979,162.896 70.824,163.819 68.976,163.819 C 74.52,171.21 80.986,177.984 87.453,185.065 C 130.563,227.56 185.374,250.04 241.417,252.502 C 243.263,250.656 245.111,248.808 247.266,246.96 C 190.609,246.037 134.566,223.866 91.763,180.755 C 85.605,174.904 80.063,168.438 74.52,161.971 z "
   style="fill:#4b7ab7"
   id="path23" />
		<path
   d="M 225.097,239.878 C 234.027,240.801 243.263,241.417 252.501,241.417 C 253.733,239.878 255.272,238.03 256.504,236.797 C 248.191,238.952 238.952,239.878 229.713,239.878 C 228.485,239.878 226.636,239.878 225.097,239.878 z "
   style="fill:#4b7ab7"
   id="path25" />
		<path
   d="M 99.463,173.058 C 93.611,166.9 87.453,160.432 82.218,153.965 C 81.295,155.813 80.37,157.352 79.138,158.584 C 84.066,165.052 89.302,171.21 95.46,177.061 C 125.329,206.621 161.356,226.021 199.847,235.259 C 188.146,231.563 177.985,226.637 168.746,219.555 C 143.496,209.084 119.786,193.381 99.463,173.058 z "
   style="fill:#4b7ab7"
   id="path27" />
		<path
   d="M 64.359,127.483 C 49.885,102.541 41.263,74.827 37.875,47.114 C 36.029,48.962 34.797,50.81 32.949,52.656 C 36.645,79.447 45.266,104.696 58.199,128.715 C 60.046,127.792 61.895,127.483 64.359,127.483 z "
   style="fill:#4b7ab7"
   id="path29" />
		<path
   d="M 152.118,203.542 C 150.27,201.078 148.422,198.923 146.574,196.152 C 132.718,187.839 119.477,177.061 107.467,165.051 C 71.133,129.638 51.424,84.065 48.037,36.952 C 46.191,38.8 44.343,40.032 42.495,41.878 C 45.882,72.056 55.121,101.001 70.825,127.792 C 78.524,130.254 84.683,137.028 84.683,145.344 C 84.683,146.267 84.683,147.19 84.683,148.115 C 90.225,155.505 96.384,162.28 103.158,169.361 C 118.862,185.065 136.414,198 155.507,207.545 C 155.507,207.236 155.507,207.236 155.507,207.236 C 154.581,206.313 153.657,204.774 152.118,203.542 z "
   style="fill:#4b7ab7"
   id="path31" />
		<path
   d="M 114.857,157.352 C 79.137,121.941 60.046,75.753 58.814,28.639 C 56.968,29.871 55.12,31.41 53.272,32.642 C 55.427,79.754 74.827,125.944 111.163,161.355 C 120.402,170.593 130.563,178.907 141.032,185.99 C 139.8,183.219 138.261,179.832 137.029,176.136 C 129.638,170.593 122.248,164.126 114.857,157.352 z "
   style="fill:#4b7ab7"
   id="path33" />
		<path
   d="M 191.532,192.765 C 202.001,201.078 215.859,206.62 230.639,206.62 C 238.645,206.62 246.035,205.39 252.501,202.926 C 231.563,202.926 211.24,199.846 191.532,192.765 z "
   style="fill:#4b7ab7"
   id="path35" />
		<path
   d="M 122.557,149.347 C 86.837,114.55 69.285,67.746 69.285,21.248 C 67.437,22.171 65.589,23.403 63.743,24.326 C 64.666,71.44 82.834,118.244 118.861,153.657 C 124.096,158.583 129.023,163.203 134.567,167.822 C 133.642,164.742 133.335,161.97 132.719,159.199 C 129.638,155.813 125.944,153.042 122.557,149.347 z "
   style="fill:#4b7ab7"
   id="path37" />
		<path
   d="M 131.793,143.496 C 131.486,143.187 130.87,142.573 130.563,142.573 C 95.459,107.469 78.523,60.971 80.369,14.781 C 78.523,15.706 76.675,16.936 74.827,17.861 C 73.904,64.049 91.147,111.163 126.867,145.651 C 128.099,147.499 129.947,149.347 131.793,151.193 C 131.793,148.422 131.793,145.651 131.793,143.496 z "
   style="fill:#4b7ab7"
   id="path39" />
		<path
   d="M 177.061,174.904 C 178.6,177.984 179.832,180.755 181.678,183.219 C 208.161,194.613 236.798,198.923 264.511,197.074 C 267.591,195.226 270.363,192.764 273.134,190.609 C 240.802,194.613 207.237,189.685 177.061,174.904 z "
   style="fill:#4b7ab7"
   id="path41" />
		<path
   d="M 173.365,160.432 C 173.981,163.203 174.288,165.667 174.904,167.823 C 207.237,184.452 244.189,189.994 279.293,184.143 C 279.6,183.527 279.6,183.527 280.216,183.22 C 281.448,181.372 282.987,179.524 283.912,177.061 C 246.96,185.065 207.237,179.523 173.365,160.432 z "
   style="fill:#4b7ab7"
   id="path43" />
		<path
   d="M 133.334,129.331 C 102.85,95.459 88.685,52.04 92.072,9.545 C 90.224,10.47 87.76,11.393 85.914,12.318 C 83.757,56.658 99.154,101.924 132.409,136.721 C 132.409,135.798 132.409,134.873 132.718,133.95 C 132.718,132.409 133.334,130.563 133.334,129.331 z "
   style="fill:#4b7ab7"
   id="path45" />
		<path
   d="M 103.773,5.852 C 101.309,6.468 99.463,6.775 97.615,7.7 C 93.919,48.346 106.544,89.918 134.567,122.865 C 135.49,121.019 136.106,118.555 137.029,116.4 C 110.547,84.989 99.463,44.649 103.773,5.852 z "
   style="fill:#4b7ab7"
   id="path47" />
		<path
   d="M 185.374,154.581 C 181.371,152.119 176.751,149.962 172.441,147.19 C 172.441,149.347 172.441,151.81 172.441,153.964 C 207.545,174.289 248.191,180.447 286.682,171.209 C 287.605,169.361 287.914,167.513 288.53,165.667 C 288.53,165.051 288.53,165.051 288.53,165.051 C 258.352,173.057 226.019,171.209 197.074,159.509 L 185.373,159.509 L 185.373,154.581 L 185.374,154.581 z "
   style="fill:#4b7ab7"
   id="path49" />
		<path
   d="M 172.442,141.341 C 176.752,144.112 181.371,146.267 185.375,148.423 L 185.375,142.573 C 181.372,140.416 177.062,137.645 173.058,134.874 C 172.442,137.028 172.442,139.493 172.442,141.341 z "
   style="fill:#4b7ab7"
   id="path51" />
		<path
   d="M 214.011,159.509 C 238.646,165.974 264.819,165.974 289.454,159.2 C 289.454,157.352 289.454,155.506 289.761,153.042 C 289.147,153.658 287.915,153.658 286.99,153.965 C 286.99,155.813 286.683,157.661 286.683,159.509 L 214.011,159.509 L 214.011,159.509 z "
   style="fill:#4b7ab7"
   id="path53" />
		<path
   d="M 114.857,3.08 C 113.011,3.08 111.163,3.696 109.315,4.003 C 104.696,41.571 114.241,79.753 138.877,110.856 C 139.8,109.008 140.725,106.544 141.648,104.696 C 118.861,75.136 110.24,38.184 114.857,3.08 z "
   style="fill:#4b7ab7"
   id="path55" />
		<path
   d="M 148.115,94.534 C 128.099,66.821 121.324,33.258 126.251,0.925 C 124.405,1.232 122.557,1.232 120.402,1.848 C 115.167,35.413 123.48,71.133 144.419,99.769 L 144.419,99.769 C 145.651,98.23 146.574,96.382 148.115,94.534 z "
   style="fill:#4b7ab7"
   id="path57" />
		<path
   d="M 289.761,144.419 C 289.761,144.112 289.761,143.187 289.761,142.264 C 288.531,142.573 287.606,143.187 286.067,143.496 C 286.067,144.728 286.683,146.574 286.683,148.422 C 287.606,148.115 289.147,148.115 289.761,147.499 C 289.761,146.267 289.761,145.344 289.761,144.419 z "
   style="fill:#4b7ab7"
   id="path59" />
		<path
   d="M 173.981,128.715 C 177.675,131.486 181.678,134.257 185.375,136.722 L 185.375,130.564 L 186.914,130.564 C 182.604,128.409 178.908,125.944 175.213,123.173 C 174.904,125.019 174.288,126.867 173.981,128.715 z "
   style="fill:#4b7ab7"
   id="path61" />
		<path
   d="M 289.761,136.722 C 289.761,134.874 289.454,133.026 289.454,131.18 C 287.606,131.487 286.067,132.103 284.219,132.41 C 284.835,134.258 285.144,136.106 285.144,137.954 C 286.683,137.645 288.531,137.028 289.761,136.722 z "
   style="fill:#4b7ab7"
   id="path63" />
		<path
   d="M 137.954,0 C 136.106,0 133.642,0.309 131.794,0.309 C 126.252,31.41 132.719,63.743 151.194,90.531 C 152.733,88.685 153.658,87.144 154.89,85.914 C 137.954,60.355 132.409,28.946 137.954,0 z "
   style="fill:#4b7ab7"
   id="path65" />
		<path
   d="M 212.779,130.563 C 201.078,126.56 189.994,120.401 179.832,112.702 C 178.907,113.934 177.984,115.782 177.061,117.63 C 183.526,122.863 190.61,126.867 197.998,130.563 L 212.779,130.563 z "
   style="fill:#4b7ab7"
   id="path67" />
		<path
   d="M 149.038,0 C 147.499,0 146.267,0 145.344,0 C 144.419,0 143.803,0 143.496,0 C 137.338,27.713 142.88,57.275 159.2,82.218 C 160.432,80.679 161.971,79.447 163.203,78.524 C 148.115,54.813 143.496,26.174 149.038,0 z "
   style="fill:#4b7ab7"
   id="path69" />
		<path
   d="M 288.531,125.635 C 288.531,123.789 287.915,121.325 287.915,119.477 C 285.758,120.402 283.912,121.018 281.448,121.941 C 282.371,123.789 282.987,125.635 283.296,127.483 C 285.144,126.56 286.99,125.944 288.531,125.635 z "
   style="fill:#4b7ab7"
   id="path71" />
		<path
   d="M 244.189,130.563 C 244.189,129.331 244.189,127.482 244.189,125.943 C 223.866,124.711 203.85,117.32 186.914,104.388 C 186.298,104.695 185.991,105.311 185.375,105.62 C 184.45,106.543 183.527,107.468 182.604,108.082 C 198.308,120.401 215.86,127.791 234.334,130.562 L 244.189,130.562 L 244.189,130.563 z "
   style="fill:#4b7ab7"
   id="path73" />
		<path
   d="M 160.123,0.309 C 158.277,0.309 156.429,0.309 154.581,0 C 149.039,25.251 153.042,52.656 167.823,75.136 C 169.362,74.211 170.594,73.288 172.442,72.365 C 158.584,50.81 154.581,24.942 160.123,0.309 z "
   style="fill:#4b7ab7"
   id="path75" />
		<path
   d="M 286.683,114.55 C 286.683,112.702 286.067,110.856 285.758,109.008 C 282.987,109.931 280.525,110.856 277.754,111.163 C 278.677,113.011 279.293,114.857 280.216,116.705 C 282.37,115.782 284.219,115.473 286.683,114.55 z "
   style="fill:#4b7ab7"
   id="path77" />
		<path
   d="M 240.492,114.55 C 225.097,113.011 210.932,107.468 197.997,98.23 C 195.535,99.153 193.687,100.078 191.839,101.001 C 207.236,112.702 224.788,119.169 242.649,120.401 C 242.341,118.554 241.417,116.398 240.492,114.55 z "
   style="fill:#4b7ab7"
   id="path79" />
		<path
   d="M 283.912,103.466 C 283.296,101.925 282.987,100.079 282.37,98.231 C 279.292,99.154 275.905,100.695 272.825,101.618 C 273.75,102.85 274.673,104.696 275.596,106.544 C 278.367,105.621 281.14,104.696 283.912,103.466 z "
   style="fill:#4b7ab7"
   id="path81" />
		<path
   d="M 226.636,100.695 C 224.172,99.77 221.401,98.847 219.246,97.922 C 214.626,96.383 209.391,96.383 204.774,96.999 C 214.627,102.85 225.713,106.544 236.182,108.393 C 233.411,105.312 230.331,102.541 226.636,100.695 z "
   style="fill:#4b7ab7"
   id="path83" />
		<path
   d="M 171.209,2.157 C 169.361,1.848 167.513,1.232 165.667,1.232 C 160.123,24.326 163.819,49.269 177.674,70.208 C 178.906,69.285 180.755,68.362 182.603,67.746 C 169.67,48.346 165.667,24.326 171.209,2.157 z "
   style="fill:#4b7ab7"
   id="path85" />
		<path
   d="M 280.525,93.304 C 279.6,91.456 279.293,89.608 278.368,87.76 C 274.674,89.608 270.364,90.84 266.36,91.456 C 267.592,93.304 268.515,95.15 270.054,96.382 C 273.75,95.459 276.828,94.534 280.525,93.304 z "
   style="fill:#4b7ab7"
   id="path87" />
		<path
   d="M 181.678,4.619 C 179.832,4.003 177.984,3.696 176.136,3.08 C 171.21,24.326 174.904,47.423 188.146,66.514 C 189.994,65.591 192.457,65.591 194.305,64.975 C 180.755,47.423 176.752,24.942 181.678,4.619 z "
   style="fill:#4b7ab7"
   id="path89" />
		<path
   d="M 208.161,63.743 C 192.765,48.346 187.836,27.1 192.456,7.699 C 190.61,7.39 188.762,6.467 186.914,5.851 C 182.295,25.867 186.914,47.422 200.772,64.049 C 202.926,64.049 205.388,63.743 208.161,63.743 z "
   style="fill:#4b7ab7"
   id="path91" />
		<path
   d="M 262.663,86.837 L 262.663,86.837 C 267.283,86.221 271.902,84.989 275.905,83.141 C 275.596,81.295 274.673,79.447 273.75,77.908 C 268.515,79.754 262.972,81.295 257.43,81.602 C 259.276,83.45 261.124,84.989 262.663,86.837 z "
   style="fill:#4b7ab7"
   id="path93" />
		<path
   d="M 216.475,56.659 C 203.85,44.649 199.846,27.713 202.926,12.01 C 201.078,11.087 199.23,10.162 197.384,9.546 C 193.381,27.1 198.307,47.114 212.163,60.972 C 213.704,61.895 214.627,63.127 215.859,64.05 C 221.401,64.666 226.943,65.898 232.488,67.437 C 226.636,64.975 221.094,61.278 216.475,56.659 z "
   style="fill:#4b7ab7"
   id="path95" />
		<path
   d="M 270.979,73.288 C 270.054,71.44 269.131,69.592 268.206,68.362 C 258.044,72.056 247.267,72.056 237.105,69.285 C 242.34,71.133 246.959,73.905 251.579,76.983 C 258.044,76.982 264.819,75.752 270.979,73.288 z "
   style="fill:#4b7ab7"
   id="path97" />
		<path
   d="M 265.435,63.743 C 263.896,61.895 262.973,60.356 261.741,58.508 C 248.808,62.204 234.334,59.124 224.173,48.963 C 215.553,40.033 211.857,28.024 213.089,16.63 C 211.241,15.707 209.393,14.782 207.547,14.166 C 205.39,27.714 209.393,42.495 220.171,52.966 C 232.179,64.975 249.731,68.669 265.435,63.743 z "
   style="fill:#4b7ab7"
   id="path99" />
		<path
   d="M 258.044,53.888 C 256.505,52.656 255.273,50.81 253.734,48.962 C 246.036,49.885 238.03,47.114 232.179,40.955 C 226.944,36.029 224.172,29.561 223.866,23.096 C 222.018,22.171 220.17,20.632 218.324,19.709 C 217.708,28.639 221.095,38.184 227.869,45.266 C 236.182,53.581 247.266,56.352 258.044,53.888 z "
   style="fill:#4b7ab7"
   id="path101" />
		<path
   d="M 249.115,43.727 C 243.264,37.875 236.799,32.333 229.715,27.1 C 230.64,30.794 232.488,34.488 235.876,37.262 C 239.569,40.955 244.189,43.419 249.115,43.727 z "
   style="fill:#4b7ab7"
   id="path103" />
	</g>
	<g
   id="g105">
		<path
   d="M 531.794,174.904 C 534.256,187.839 539.185,197.384 551.192,201.078 C 565.666,205.39 583.525,204.465 592.457,192.765 C 595.535,188.762 596.151,182.603 594.612,177.677 C 592.457,169.671 585.374,167.823 571.518,165.052 C 559.509,162.281 529.947,159.2 514.243,147.191 C 501.617,137.646 495.152,119.17 501.617,98.848 C 509.315,76.984 531.486,67.438 548.115,64.976 C 578.909,60.357 603.851,72.058 614.627,83.142 C 622.942,91.765 628.485,105.622 627.869,119.171 L 593.688,119.171 C 593.381,114.859 592.765,110.858 590.917,107.162 C 586.914,97.923 577.062,92.381 566.591,92.381 C 554.584,91.458 541.958,94.536 537.031,104.698 C 535.183,108.394 535.183,114.86 538.261,118.556 C 545.652,126.869 560.125,127.485 572.442,129.64 C 593.688,133.336 616.784,137.03 626.946,154.582 C 638.647,174.905 632.179,198.001 624.789,207.238 C 619.556,213.705 613.705,219.557 605.698,224.174 C 592.458,231.564 569.671,234.336 547.5,230.641 C 527.177,227.561 513.319,217.399 505.622,204.776 C 499.464,195.228 495.768,186.915 495.768,174.905 L 531.794,174.905 L 531.794,174.904 z "
   style="fill:#0e2180"
   id="path107" />
		<path
   d="M 376.905,130.563 L 434.797,130.563 C 435.72,117.321 425.558,102.54 412.009,98.23 C 400.002,94.534 387.067,96.998 376.291,105.621 C 366.744,114.55 363.356,133.025 363.356,144.419 C 363.972,165.974 367.975,181.371 380.601,190.609 C 388.914,196.459 407.392,204.465 424.018,192.455 C 431.409,186.913 434.796,179.522 436.028,173.98 L 477.29,173.98 C 476.367,186.913 463.741,207.545 451.425,216.781 C 429.254,233.103 400.001,236.181 377.214,227.559 C 327.945,209.084 319.939,161.97 323.635,133.95 C 325.481,122.247 329.793,110.24 335.642,99.769 C 347.345,81.294 363.972,68.361 387.066,64.665 C 412.008,60.971 436.951,68.668 453.273,86.836 C 462.509,97.307 471.132,114.857 474.519,129.33 C 476.367,138.875 478.213,149.037 477.29,159.508 L 376.905,159.508 L 376.905,130.563 z "
   style="fill:#0e2180"
   id="path109" />
		<g
   id="g111">
			<path
   d="M 723.634,201.078 L 723.634,230.64 C 736.567,227.869 746.728,222.017 756.583,214.011 C 756.89,216.475 759.354,225.098 761.202,227.56 L 800,227.56 C 793.841,215.552 794.765,198 794.765,188.146 L 794.765,138.57 C 794.458,125.635 794.458,112.702 791.687,100.695 C 788.916,88.685 778.138,68.669 743.957,64.666 C 737.49,64.05 730.715,64.05 723.634,64.05 L 723.634,93.612 C 732.872,93.305 742.109,95.46 748.576,101.618 C 752.886,105.621 754.118,111.163 752.886,117.322 C 750.424,126.868 739.953,130.255 723.634,132.41 L 723.634,157.661 C 727.944,157.352 732.563,156.429 737.489,154.89 C 747.651,152.735 750.115,150.887 755.041,147.19 C 755.041,150.886 755.657,177.061 753.195,182.294 C 749.192,193.381 737.49,199.846 723.634,201.078 z "
   style="fill:#0e2180"
   id="path113" />
			<path
   d="M 723.634,93.611 L 723.634,64.049 C 712.24,64.665 699.924,66.513 690.378,70.208 C 670.055,78.523 659.891,98.23 659.891,119.169 L 696.843,119.169 C 695.92,108.392 703.617,98.846 711.317,96.075 C 714.395,94.534 719.014,93.611 723.634,93.611 z "
   style="fill:#0e2180"
   id="path115" />
			<path
   d="M 723.634,157.661 L 723.634,132.41 C 718.092,133.335 711.624,133.951 704.543,134.874 C 685.143,137.029 657.429,146.575 650.962,174.904 C 648.807,185.99 650.655,206.314 667.591,219.555 C 679.292,228.484 695.305,232.488 707.93,232.179 C 713.472,232.179 719.014,231.563 723.634,230.64 L 723.634,201.078 C 720.863,201.694 717.782,202.001 714.395,201.694 C 705.156,201.694 697.152,197.074 694.072,189.993 C 690.378,183.219 692.533,176.135 694.995,172.132 C 700.539,162.28 710.085,160.432 723.634,157.661 z "
   style="fill:#0e2180"
   id="path117" />
		</g>
	</g>
</g>
<path
   style="fill:#0e2180;fill-opacity:1"
   id="path1927"
   d="M 724.73878,67.051166 C 724.83159,67.557338 724.88917,68.102988 724.9634,68.623847 C 725.11219,69.487998 725.14409,70.362599 725.17462,71.236707 C 725.20024,72.139435 725.19371,73.042482 725.19497,73.945439 C 725.19235,74.709649 725.20025,75.473844 725.20593,76.238025 C 725.20926,76.808475 725.20721,77.378928 725.20754,77.94939 C 725.20723,78.539029 725.20567,79.128681 725.20525,79.718319 C 725.18478,80.598879 725.19001,81.479546 725.19654,82.360209 C 725.26111,82.944634 725.16492,83.517151 725.11691,84.093654 C 724.86372,85.620474 721.3645,87.483323 722.0212,85.186913 C 722.44316,83.733792 722.48204,82.229868 722.52017,80.730671 C 722.51904,79.875424 722.49857,79.020361 722.4808,78.16534 C 722.45275,77.526599 722.5729,76.896301 722.66211,76.267136 C 722.77064,75.638557 722.93116,75.021667 723.0853,74.403457 C 723.22975,73.90215 723.36469,73.398978 723.50932,72.897799 C 723.64423,72.418001 723.65362,71.920878 723.68437,71.42775 C 723.71278,70.956405 723.42357,70.69635 723.19841,70.332924 C 722.91651,69.980533 722.63771,69.626577 722.35394,69.275747 C 722.15084,68.962971 721.94338,68.653046 721.73394,68.345833 C 721.66768,67.96476 721.42685,67.680667 721.26494,67.345545 C 721.18094,67.217491 721.08502,67.098194 720.99558,66.97523 L 724.13616,65.102088 C 724.23292,65.243572 724.3304,65.384452 724.42642,65.526523 C 724.60563,65.854397 724.82614,66.14905 724.89525,66.526577 C 725.09343,66.818158 725.29529,67.10956 725.48399,67.408638 C 725.75868,67.758453 726.02941,68.111282 726.30804,68.45765 C 726.60357,68.885345 726.91551,69.234809 726.92729,69.788212 C 726.90444,70.304161 726.90059,70.823445 726.78629,71.330277 C 726.63414,71.835583 726.51473,72.347087 726.36041,72.852603 C 726.19738,73.45894 726.0189,74.062488 725.91842,74.684266 C 725.82469,75.290858 725.69045,75.901601 725.70332,76.518805 C 725.70489,77.387418 725.71253,78.256178 725.68857,79.124591 C 725.63416,80.637957 725.59316,82.15775 725.24033,83.638928 C 725.00512,85.11286 721.44182,87.741536 721.84398,85.684832 C 721.92205,85.121334 722.05451,84.574415 721.98673,83.995691 C 721.99319,83.117988 721.99868,82.240277 721.97801,81.362681 C 721.97758,80.773816 721.976,80.184938 721.97571,79.596073 C 721.97614,79.024835 721.97403,78.453604 721.97813,77.882382 C 721.98511,77.113815 721.99447,76.345236 721.99331,75.576626 C 721.99425,74.676585 721.99327,73.776461 721.97894,72.876522 C 721.94804,72.018437 721.92165,71.158354 721.77964,70.309352 C 721.69099,69.780277 721.66745,69.216363 721.46235,68.720591 L 724.73878,67.051166 z " /><path
   style="fill:#0e2180;fill-opacity:1"
   id="path1929"
   d="M 724.24771,72.698471 C 724.2113,73.34818 724.21093,73.999172 724.20337,74.64965 C 724.19147,75.816132 724.1986,76.982705 724.2021,78.149215 C 724.20631,79.295589 724.46275,80.406702 724.74206,81.510112 C 725.01029,82.206196 725.19567,82.921685 725.37131,83.643343 C 725.45905,84.264109 725.44753,84.892315 725.45721,85.517515 C 725.40761,86.01505 725.5957,86.460395 725.72238,86.927727 C 725.84969,87.345512 726.07222,87.720883 726.27529,88.103717 C 726.48791,88.435996 726.61838,88.808219 726.78275,89.161718 C 726.86652,89.561826 726.77996,89.968959 726.73861,90.370074 C 726.7381,90.520634 726.70859,90.668277 726.69358,90.817379 L 723.41675,92.407015 C 723.43836,92.269734 723.52877,92.144031 723.48158,91.995172 C 723.51829,91.635569 723.55061,91.274781 723.58821,90.915692 C 723.43759,90.586135 723.31784,90.238237 723.1207,89.928049 C 722.90674,89.515594 722.67444,89.110572 722.53312,88.664718 C 722.37398,88.173691 722.19227,87.689824 722.22941,87.163308 C 722.2255,86.556692 722.23874,85.947995 722.16721,85.344251 C 722.01816,84.62301 721.85781,83.908272 721.59708,83.214925 C 721.31514,82.083296 721.05333,80.943828 721.0169,79.772159 C 721.02039,78.606081 721.02755,77.439939 721.01562,76.273889 C 721.00815,75.638479 721.00837,75.00249 720.97128,74.367896 L 724.24771,72.698471 z " /><path
   style="fill:#0e2180;fill-opacity:1"
   id="path1931"
   d="M 722.44449,91.74214 C 722.36542,91.313057 722.3224,90.874851 722.27187,90.440124 C 722.23866,90.085907 722.23691,89.730074 722.22387,89.374911 L 725.45699,87.719875 C 725.46578,88.068313 725.4645,88.417224 725.49147,88.765024 C 725.53966,89.204198 725.54411,89.660892 725.72092,90.072716 L 722.44449,91.74214 z " /><path
   style="fill:#0e2180;fill-opacity:1"
   id="path1933"
   d="M 724.98432,133.83669 C 724.96278,134.25542 724.96451,134.6749 724.95887,135.09403 C 724.95638,135.70341 724.96029,136.31279 724.96274,136.92217 C 724.92679,137.43753 724.99573,137.93995 725.06115,138.44838 C 725.16248,139.12478 725.17219,139.80921 725.18971,140.49146 C 725.20064,141.25032 725.20108,142.00926 725.2016,142.76818 C 725.2064,143.42684 725.20385,144.08552 725.20374,144.74419 C 725.2035,145.38438 725.20413,146.02454 725.20575,146.66472 C 725.19271,147.39084 725.19981,148.11704 725.20369,148.8432 C 725.20805,149.38645 725.209,149.92972 725.21038,150.47298 C 725.21105,150.96366 725.21085,151.45434 725.21091,151.94503 C 725.19642,152.41807 725.22094,152.89184 725.23131,153.36328 C 725.04062,153.73243 725.43531,153.96099 725.49726,154.1425 C 725.91645,154.27382 726.10402,154.62561 726.38138,154.91656 C 726.4748,155.05364 726.4973,155.21802 726.55526,155.36874 L 723.36211,157.11472 C 723.36142,157.11274 723.2708,156.75167 723.23589,156.75281 C 722.98006,156.54346 722.79671,156.2257 722.43651,156.13255 C 722.20434,155.75955 721.89436,155.59534 722.01071,155.05946 C 721.99164,154.57442 721.94529,154.08452 721.97236,153.59515 C 721.97242,153.10429 721.97223,152.61342 721.9729,152.12255 C 721.97428,151.57702 721.97524,151.03149 721.97958,150.48597 C 721.98342,149.76051 721.99059,149.03501 721.9775,148.30959 C 721.97918,147.66859 721.97978,147.02761 721.98,146.38661 C 721.98061,145.72675 721.97875,145.06688 721.98484,144.40703 C 721.98545,143.65025 721.98936,142.89339 721.97734,142.13666 C 721.95973,141.47115 721.95068,140.80337 721.85344,140.14332 C 721.77057,139.61929 721.68474,139.1033 721.72947,138.5696 C 721.73191,137.95891 721.73582,137.34821 721.73334,136.73752 C 721.72774,136.32704 721.72975,135.91617 721.70789,135.50611 L 724.98432,133.83669 z " /><path
   style="fill:#0e2180;fill-opacity:1"
   id="path1935"
   d="M 725.22985,202.34095 C 725.2085,202.71176 725.21452,203.08336 725.21062,203.45457 C 725.2096,203.95971 725.2102,204.46485 725.21044,204.96999 C 725.21394,205.52199 725.20727,206.07393 725.20201,206.62587 C 725.26356,207.76516 725.51022,208.88602 725.69273,210.01074 C 725.83053,210.93815 725.89333,211.87232 725.93185,212.80805 C 725.94605,213.54469 725.94151,214.28152 725.94085,215.01826 C 725.93925,215.85878 725.93211,216.69924 725.92491,217.53973 C 725.92014,218.3896 725.93177,219.23944 725.94016,220.08924 C 725.89912,220.73754 725.97183,221.37422 726.04186,222.01605 C 726.13127,222.5516 726.15206,223.09336 726.18183,223.63414 C 726.1445,224.12573 726.24088,224.60316 726.29155,225.0872 C 726.3831,225.58017 726.49558,226.06917 726.59556,226.56073 C 726.68594,227.05262 726.65875,227.55223 726.66828,228.04761 C 726.67421,228.22287 726.56703,228.36193 726.51641,228.51909 L 723.19764,230.00717 C 723.26674,229.8915 723.36991,229.79598 723.40495,229.66014 C 723.41467,229.19883 723.47347,228.72498 723.38316,228.25965 C 723.28222,227.77038 723.19064,227.2778 723.08156,226.79062 C 722.99937,226.29229 722.91604,225.80196 722.9495,225.29373 C 722.92833,224.76256 722.91671,224.23031 722.837,223.70342 C 722.75702,223.04698 722.67318,222.39574 722.71626,221.7319 C 722.72466,220.87677 722.73623,220.02161 722.73205,219.16642 C 722.72566,218.33011 722.71908,217.49383 722.72185,216.65749 C 722.72362,215.92332 722.72891,215.1891 722.71929,214.45495 C 722.69802,213.52568 722.67067,212.59536 722.54428,211.67293 C 722.36804,210.53504 722.12942,209.40785 721.98127,208.26692 C 721.97598,207.71784 721.96933,207.16877 721.97284,206.61963 C 721.97308,206.11455 721.97368,205.60947 721.97266,205.10439 C 721.96878,204.73972 721.9751,204.37462 721.95342,204.01037 L 725.22985,202.34095 z " /><path
   style="fill:#0e2180;fill-opacity:1"
   id="path1937"
   d="M 725.47539,201.84988 C 725.46119,202.17132 725.46115,202.49323 725.45621,202.81491 C 725.45134,203.36071 725.45385,203.90655 725.45474,204.45237 C 725.41673,204.9244 725.483,205.39191 725.51304,205.85812 L 722.30113,207.57404 C 722.25915,207.08501 722.16459,206.59901 722.21961,206.10075 C 722.2205,205.55543 722.22302,205.01009 722.21813,204.46479 C 722.21322,204.14963 722.21333,203.83421 722.19896,203.5193 L 725.47539,201.84988 z " /><path
   style="fill:#0e2180;fill-opacity:1"
   id="path1939"
   d="M 725.96646,201.84988 C 725.95107,202.16106 725.95377,202.47278 725.94987,202.78422 C 725.94725,203.26737 725.94757,203.75054 725.94729,204.2337 L 722.70919,205.88359 C 722.70891,205.40131 722.70924,204.91902 722.70662,204.43673 C 722.70274,204.13093 722.70563,203.82483 722.69003,203.5193 L 725.96646,201.84988 z " /><path
   style="fill:#0e2180;fill-opacity:1"
   id="path1941"
   d="M 721.01348,205.05911 C 720.67008,204.80252 721.08063,204.49809 721.10613,204.28512 C 721.16999,204.25483 721.18222,204.18527 721.22027,204.13535 L 724.51776,202.55038 C 724.51774,202.55049 724.51005,202.85275 724.46854,202.85272 C 724.36602,202.94394 724.1917,203.10796 724.14678,203.13902 L 721.01348,205.05911 z " /><path
   style="fill:#0e2180;fill-opacity:1"
   id="path1943"
   d="M 723.38973,134.05239 C 723.69321,134.0631 723.99695,134.06024 724.30055,134.06333 C 724.74904,134.03384 725.18287,134.14853 725.61942,134.23658 C 726.02417,134.33066 726.38239,134.5384 726.74955,134.69149 C 728.01629,136.34045 723.56744,136.4887 723.49699,136.51512 C 723.30632,135.97309 722.88144,135.69811 722.51152,135.33936 C 722.08055,135.21264 721.63753,135.37639 721.21053,135.44854 C 720.74438,135.6693 720.29074,135.56379 719.80949,135.55506 L 722.777,133.44301 C 723.22222,133.40272 723.67152,133.4254 724.10259,133.24832 C 724.61502,133.19786 725.08841,133.09427 725.56461,133.36158 C 725.97945,133.75409 726.36578,134.12244 726.61739,134.66035 C 725.6645,135.36468 724.35872,137.62997 723.67825,136.6599 C 723.33617,136.54398 722.99447,136.4021 722.63742,136.32542 C 722.2103,136.26044 721.7937,136.15141 721.35574,136.20286 C 721.0421,136.20544 720.72833,136.20371 720.4148,136.21381 L 723.38973,134.05239 z " /><path
   style="fill:#0e2180;fill-opacity:1"
   id="path1945"
   d="M 724.98432,88.903781 C 724.94986,89.079693 725.22755,89.106984 725.34438,89.204586 C 725.64152,89.436774 725.79634,89.792969 726.00014,90.102073 C 726.23706,90.411998 726.36403,90.779933 726.5334,91.122962 L 723.34068,92.880617 C 723.18748,92.571717 723.07797,92.234008 722.85861,91.956488 C 722.68054,91.69093 722.55605,91.368758 722.28062,91.19138 C 722.08053,90.998004 721.70616,90.922565 721.70789,90.573206 L 724.98432,88.903781 z " /></svg>