<?xml version="1.0" encoding="UTF-8" standalone="no"?>
<!-- Created with Inkscape (http://www.inkscape.org/) -->
<svg
   xmlns:svg="http://www.w3.org/2000/svg"
   xmlns="http://www.w3.org/2000/svg"
   version="1.0"
   width="331.70001"
   height="200.56"
   id="svg3208">
  <defs
     id="defs3210" />
  <g
     transform="translate(-461.0625,-23.306237)"
     id="layer1">
    <path
       d="M 629.21831,24.304984 L 581.66596,92.867488 L 559.93706,93.929988 L 558.49956,98.242488 L 579.56206,98.586238 L 557.06206,127.86749 C 557.06206,127.86749 543.49956,120.36749 543.49956,120.36749 C 556.65817,96.358828 567.43706,54.304984 567.43706,54.304984 L 572.06206,48.929984 L 543.15581,49.648734 C 543.15581,49.648734 533.98264,93.682168 522.43706,113.92999 C 502.89599,106.92262 462.06206,106.46505 462.06206,106.46505 C 462.06206,106.46505 505.58598,113.05654 518.84331,118.58624 C 504.06891,144.95033 476.71831,141.08624 476.71831,141.08624 L 477.43706,143.92999 C 477.43706,143.92999 515.40368,154.84046 538.49956,126.08624 C 538.49956,126.08624 552.78081,134.64874 552.78081,134.64874 L 543.15581,150.02374 L 555.28081,135.74249 C 555.28081,135.74249 567.43706,146.80499 567.43706,146.80499 C 522.27734,183.34138 499.93706,222.86749 499.93706,222.86749 C 499.93706,222.86749 525.65109,190.41315 576.71831,155.36749 C 586.35696,161.92897 608.84331,197.86749 608.84331,197.86749 L 617.43706,129.64874 L 652.06206,112.52374 L 629.21831,141.80467 L 653.15581,141.80467 L 675.65581,115.02374 L 680.99956,141.80467 L 728.84331,141.80467 L 741.34331,122.14874 L 767.78081,122.52374 L 767.78081,141.80467 L 789.93706,141.80467 C 789.93706,141.80467 786.79867,57.703464 786.79867,57.703464 C 786.79867,52.067654 791.76296,48.929984 791.76296,48.929984 C 791.76296,48.929984 764.93706,48.929984 764.93706,48.929984 L 706.9817,138.92999 L 695.28081,95.367488 L 733.84331,83.929988 L 703.15581,85.367488 C 703.15581,85.367488 719.73233,62.113734 727.78081,52.867484 C 728.90187,51.579584 732.47481,49.648734 732.47481,49.648734 L 704.93706,48.929984 L 684.93706,76.804988 L 681.34331,52.867484 L 687.06206,49.304984 L 653.84331,49.648734 L 663.49956,88.242488 L 621.71831,90.315138 L 629.21831,24.304984 z M 607.46831,69.492484 L 604.43706,91.336238 L 590.31206,91.711238 L 607.46831,69.492484 z M 767.78081,78.054988 L 767.78081,105.17999 L 751.34331,105.17999 L 767.78081,78.054988 z M 670.59331,94.242488 C 638.63812,103.19241 627.99772,110.4768 619.34331,113.96124 C 619.34331,113.96124 621.21833,95.898738 621.21831,95.898738 C 621.21831,95.898738 670.59332,94.242508 670.59331,94.242488 z M 603.78081,96.804988 L 600.46831,124.21124 L 576.18706,139.92999 L 560.46831,129.30499 L 585.81841,97.016124 L 603.78081,96.804988 z M 598.15581,141.42999 L 595.81206,161.42999 L 585.99956,148.39874 L 598.15581,141.42999 z"
       id="path3769"
       style="fill:#00599c;fill-opacity:1;fill-rule:evenodd;stroke:none;stroke-width:1px;stroke-linecap:butt;stroke-linejoin:miter;stroke-opacity:1" />
  </g>
</svg>
